<?xml version="1.0" encoding="UTF-8" standalone="no"?>
<!DOCTYPE svg PUBLIC "-//W3C//DTD SVG 1.1//EN" "http://www.w3.org/Graphics/SVG/1.1/DTD/svg11.dtd">
<svg width="100%" height="100%" viewBox="0 0 47 47" version="1.1" xmlns="http://www.w3.org/2000/svg" xmlns:xlink="http://www.w3.org/1999/xlink" xml:space="preserve" xmlns:serif="http://www.serif.com/" style="fill-rule:evenodd;clip-rule:evenodd;stroke-linejoin:round;stroke-miterlimit:2;">
    <g transform="matrix(1,0,0,1,-404.197,-88.512)">
        <g transform="matrix(2.73239,0,0,2.73239,-574.324,-114.985)">
            <g transform="matrix(0.86232,0,0,0.86232,59.6049,15.2009)">
                <circle cx="356.096" cy="78.659" r="9.92" style="fill:rgb(1,121,254);"/>
            </g>
            <g transform="matrix(0.0114656,0,0,0.0114656,355.208,72.29)">
                <g transform="matrix(1,0,0,1,-1.81899e-12,-16.1413)">
                    <path d="M951.914,716.534C952.428,716.588 952.962,716.641 953.514,716.693C955.675,716.87 958.114,717.069 960.773,717.288C963.434,717.476 966.315,717.645 969.367,717.783C972.415,717.977 975.641,717.967 978.964,718.117C982.295,718.146 985.737,718.176 989.231,718.206C992.73,718.149 996.281,718.224 999.835,718.056C1003.39,717.947 1006.94,717.947 1010.44,717.724C1013.93,717.499 1017.38,717.498 1020.7,717.228C1024.03,717.029 1027.25,716.837 1030.31,716.654C1033.36,716.42 1036.24,716.199 1038.91,715.995C1044.25,715.655 1048.69,715.217 1051.81,714.973C1051.93,714.963 1052.04,714.955 1052.17,714.944C1108.63,693.007 1164.24,663.574 1202.49,615.682C1229.57,581.774 1246.01,536.809 1244.22,493.674C1242.82,460.009 1214.54,434.073 1181.92,436.837C1145.71,439.906 1048.73,462.586 1000,483.155C951.267,462.586 854.291,439.906 818.08,436.837C785.455,434.073 757.183,460.009 755.783,493.674C753.991,536.809 770.429,581.774 797.512,615.682C836.686,664.729 894.059,694.432 951.914,716.534Z" style="fill:white;fill-rule:nonzero;"/>
                </g>
                <g transform="matrix(69.0164,0,0,69.0164,-24306.5,-4793.71)">
                    <path d="M372.135,84.251C371.606,83.329 370.839,82.531 370.011,81.805C369.19,81.086 368.3,80.429 367.356,79.844C367.365,79.841 367.374,79.838 367.383,79.835L366.977,79.885L366.672,79.901L366.367,79.896L365.977,79.853C365.038,80.436 364.154,81.09 363.336,81.805C362.508,82.531 361.741,83.329 361.212,84.251C360.683,85.174 360.403,86.234 360.579,87.259C360.755,88.285 361.426,89.263 362.45,89.749C363.457,90.226 365.48,90.547 366.674,90.507C367.868,90.547 369.891,90.226 370.897,89.749C371.921,89.263 372.593,88.285 372.769,87.259C372.945,86.234 372.664,85.174 372.135,84.251ZM368.308,85.574C368.12,85.339 367.794,85.136 367.329,84.966L366.771,84.761C366.585,84.692 366.432,84.631 366.311,84.577C366.199,84.528 366.114,84.485 366.058,84.449C365.941,84.375 365.851,84.283 365.786,84.173C365.721,84.063 365.688,83.941 365.688,83.807C365.688,83.589 365.779,83.411 365.96,83.272C366.057,83.197 366.175,83.143 366.311,83.109C366.428,83.079 366.56,83.064 366.706,83.064C366.812,83.064 366.922,83.071 367.036,83.087C367.157,83.103 367.282,83.127 367.413,83.16C367.667,83.225 367.856,83.292 367.98,83.361L368.254,82.737C368.008,82.579 367.602,82.487 367.036,82.461L367.036,82.081C367.036,81.907 366.874,81.765 366.674,81.765C366.473,81.765 366.311,81.907 366.311,82.081L366.311,82.474C365.912,82.52 365.575,82.642 365.298,82.841C364.938,83.099 364.758,83.425 364.758,83.817C364.758,84.14 364.85,84.417 365.035,84.647C365.219,84.876 365.544,85.075 366.009,85.242L366.557,85.44C366.743,85.508 366.903,85.573 367.036,85.637C367.256,85.742 367.404,85.842 367.48,85.937C367.603,86.089 367.664,86.253 367.664,86.43C367.664,86.667 367.554,86.862 367.334,87.016C367.246,87.077 367.147,87.125 367.036,87.161C366.87,87.217 366.678,87.245 366.46,87.245C366.412,87.245 366.362,87.243 366.311,87.24C366.145,87.228 365.963,87.197 365.765,87.146C365.506,87.081 365.29,86.999 365.116,86.901L364.777,87.561C365.201,87.78 365.713,87.889 366.311,87.891L366.311,88.264C366.311,88.438 366.473,88.579 366.674,88.579C366.874,88.579 367.036,88.438 367.036,88.264L367.036,87.834C367.403,87.77 367.715,87.651 367.973,87.479C368.384,87.203 368.589,86.868 368.589,86.473C368.589,86.11 368.495,85.81 368.308,85.574Z" style="fill:white;"/>
                </g>
            </g>
        </g>
    </g>
</svg>
